<?xml version="1.0" encoding="UTF-8"?>
<svg version="1.2" baseProfile="tiny" xmlns="http://www.w3.org/2000/svg" viewBox="0 0 512 512" width="512" height="512">
    <title>Tap &amp; Tell Logo</title>
    <desc>BIMI Logo for Tap &amp; Tell</desc>

    <!-- Background -->
    <rect width="512" height="512" rx="64" fill="#18181b" />

    <!-- Logo centered with padding -->
    <g fill="#ffffff" transform="translate(128, 128)">
        <!-- T letter -->
        <rect x="24" y="32" width="84" height="14.4" rx="2.4" />
        <rect x="50.4" y="32" width="16.8" height="96" rx="2.4" />

        <!-- & symbol -->
        <path
            d="M168 144c-12-12-12-31.2 0-43.2s31.2-12 43.2 0c6 6 9 13.2 9 21.6h-14.4c0-4.8-1.8-9.6-5.4-13.2-7.2-7.2-19.2-7.2-26.4 0s-7.2 19.2 0 26.4l31.2 31.2c7.2-7.2 10.8-16.8 10.8-26.4h14.4c0 13.2-6 26.4-16.8 37.2l16.8 16.8-10.2 10.2-16.8-16.8c-12 12-31.2 12-43.2 0s-12-31.2 0-43.2l19.8-19.8zm10.2 10.2l-19.8 19.8c-7.2 7.2-7.2 19.2 0 26.4s19.2 7.2 26.4 0l-6.6-6.6z" />

        <!-- T letter small -->
        <rect x="225.6" y="115.2" width="48" height="12" rx="2.4" />
        <rect x="238.8" y="115.2" width="14.4" height="57.6" rx="2.4" />
    </g>
</svg>